<svg width="48" height="48" viewBox="0 0 48 48" fill="none" xmlns="http://www.w3.org/2000/svg">
<circle cx="24" cy="24" r="23" fill="#FFDC5F" stroke="black" stroke-width="2"/>
<path d="M36 14.6667C34.52 14.2 32.8934 14 31.3334 14C28.7334 14 25.9334 14.5333 24 16C22.0667 14.5333 19.2667 14 16.6667 14C14.0667 14 11.2667 14.5333 9.33337 16V35.5333C9.33337 35.8667 9.66671 36.2 10 36.2C10.1334 36.2 10.2 36.1333 10.3334 36.1333C12.1334 35.2667 14.7334 34.6667 16.6667 34.6667C19.2667 34.6667 22.0667 35.2 24 36.6667C25.8 35.5333 29.0667 34.6667 31.3334 34.6667C33.5334 34.6667 35.8 35.0667 37.6667 36.0667C37.8 36.1333 37.8667 36.1333 38 36.1333C38.3334 36.1333 38.6667 35.8 38.6667 35.4667V16C37.8667 15.4 37 15 36 14.6667ZM36 32.6667C34.5334 32.2 32.9334 32 31.3334 32C29.0667 32 25.8 32.8667 24 34V18.6667C25.8 17.5333 29.0667 16.6667 31.3334 16.6667C32.9334 16.6667 34.5334 16.8667 36 17.3333V32.6667Z" fill="black"/>
<path d="M31.3334 22C32.5067 22 33.64 22.12 34.6667 22.3467V20.32C33.6134 20.12 32.48 20 31.3334 20C29.0667 20 27.0134 20.3867 25.3334 21.1067V23.32C26.84 22.4667 28.9334 22 31.3334 22ZM25.3334 24.6533V26.8667C26.84 26.0133 28.9334 25.5467 31.3334 25.5467C32.5067 25.5467 33.64 25.6667 34.6667 25.8933V23.8667C33.6134 23.6667 32.48 23.5467 31.3334 23.5467C29.0667 23.5467 27.0134 23.9467 25.3334 24.6533ZM31.3334 27.1067C29.0667 27.1067 27.0134 27.4933 25.3334 28.2133V30.4267C26.84 29.5733 28.9334 29.1067 31.3334 29.1067C32.5067 29.1067 33.64 29.2267 34.6667 29.4533V27.4267C33.6134 27.2133 32.48 27.1067 31.3334 27.1067Z" fill="black"/>
</svg>
