<svg width="24" height="24" viewBox="0 0 24 24" fill="none" xmlns="http://www.w3.org/2000/svg">
<path d="M20.317 4.50167C18.7873 3.80616 17.147 3.29374 15.4319 3.00025C15.4007 2.99459 15.3695 3.00875 15.3534 3.03706C15.1424 3.40887 14.9087 3.89392 14.7451 4.27517C12.9004 4.00151 11.0652 4.00151 9.25832 4.27517C9.09465 3.88545 8.85248 3.40887 8.64057 3.03706C8.62448 3.00969 8.59328 2.99553 8.56205 3.00025C6.84791 3.2928 5.20756 3.80522 3.67693 4.50167C3.66368 4.50733 3.65233 4.51678 3.64479 4.52904C0.533392 9.13521 -0.31895 13.6282 0.0991801 18.0654C0.101072 18.0871 0.11337 18.1079 0.130398 18.1211C2.18321 19.6149 4.17171 20.5218 6.12328 21.123C6.15451 21.1324 6.1876 21.1211 6.20748 21.0956C6.66913 20.4709 7.08064 19.8122 7.43347 19.1195C7.4543 19.0789 7.43442 19.0308 7.39186 19.0148C6.73913 18.7694 6.1176 18.4702 5.51973 18.1305C5.47244 18.1032 5.46865 18.0361 5.51216 18.0041C5.63797 17.9106 5.76382 17.8134 5.88395 17.7153C5.90569 17.6974 5.93598 17.6936 5.96153 17.7049C9.88928 19.4819 14.1415 19.4819 18.0229 17.7049C18.0485 17.6926 18.0788 17.6964 18.1015 17.7143C18.2216 17.8125 18.3475 17.9106 18.4742 18.0041C18.5177 18.0361 18.5149 18.1032 18.4676 18.1305C17.8697 18.4768 17.2482 18.7694 16.5945 19.0138C16.552 19.0299 16.533 19.0789 16.5538 19.1195C16.9143 19.8112 17.3258 20.4699 17.7789 21.0947C17.7978 21.1211 17.8319 21.1324 17.8631 21.123C19.8241 20.5218 21.8126 19.6149 23.8654 18.1211C23.8834 18.1079 23.8948 18.0881 23.8967 18.0664C24.3971 12.9364 23.0585 8.4803 20.3482 4.52998C20.3416 4.51678 20.3303 4.50733 20.317 4.50167ZM8.02002 15.3636C6.8375 15.3636 5.86313 14.2878 5.86313 12.9666C5.86313 11.6454 6.8186 10.5696 8.02002 10.5696C9.23087 10.5696 10.1958 11.6549 10.1769 12.9666C10.1769 14.2878 9.22141 15.3636 8.02002 15.3636ZM15.9947 15.3636C14.8123 15.3636 13.8379 14.2878 13.8379 12.9666C13.8379 11.6454 14.7933 10.5696 15.9947 10.5696C17.2056 10.5696 18.1705 11.6549 18.1516 12.9666C18.1516 14.2878 17.2056 15.3636 15.9947 15.3636Z" fill="black"/>
</svg>
