<svg width="24" height="24" viewBox="0 0 24 24" fill="none" xmlns="http://www.w3.org/2000/svg">
<path fill-rule="evenodd" clip-rule="evenodd" d="M1.64987 10.5633C8.09231 7.7564 12.3883 5.90594 14.5378 5.0119C20.675 2.4592 21.9503 2.01577 22.7815 2.00113C22.9643 1.99791 23.3731 2.04322 23.6379 2.25807C23.8614 2.43948 23.9229 2.68455 23.9524 2.85655C23.9818 3.02855 24.0185 3.42037 23.9893 3.72653C23.6567 7.22097 22.2177 15.701 21.4856 19.6149C21.1758 21.271 20.5658 21.8262 19.9753 21.8806C18.6919 21.9987 17.7174 21.0325 16.4744 20.2177C14.5294 18.9427 13.4305 18.149 11.5425 16.9048C9.36064 15.467 10.7751 14.6767 12.0185 13.3852C12.344 13.0472 17.9985 7.90402 18.1079 7.43745C18.1216 7.3791 18.1343 7.16159 18.0051 7.04673C17.8759 6.93188 17.6851 6.97115 17.5475 7.00239C17.3524 7.04667 14.2452 9.10042 8.22584 13.1637C7.34386 13.7693 6.54499 14.0644 5.82924 14.0489C5.04017 14.0319 3.52233 13.6028 2.39397 13.236C1.00999 12.7861 -0.0899676 12.5483 0.00581422 11.7842C0.0557033 11.3863 0.603723 10.9793 1.64987 10.5633Z" fill="black"/>
</svg>
