<svg width="24" height="24" viewBox="0 0 24 24" fill="none" xmlns="http://www.w3.org/2000/svg">
<path d="M21.534 7.03335C21.5437 7.25566 21.5437 7.46788 21.5437 7.69019C21.5534 14.4304 16.6014 22.2115 7.54533 22.2115C4.87433 22.2115 2.25207 21.4132 0.000244141 19.9176C0.390171 19.9681 0.780098 19.9883 1.17002 19.9883C3.38286 19.9883 5.5372 19.2203 7.28213 17.7955C5.17652 17.7551 3.32437 16.3302 2.68099 14.2485C3.42185 14.4001 4.18221 14.3698 4.90357 14.1576C2.61275 13.6927 0.965313 11.6009 0.955565 9.16557C0.955565 9.14535 0.955565 9.12514 0.955565 9.10493C1.63794 9.49904 2.40804 9.72136 3.1879 9.74157C1.03355 8.24598 0.360927 5.26492 1.66718 2.9306C4.17246 6.12387 7.85727 8.05398 11.815 8.26619C11.4154 6.49777 11.9612 4.63839 13.2383 3.38534C15.2171 1.45523 18.3366 1.55628 20.2082 3.60765C21.3097 3.38534 22.3723 2.96091 23.3374 2.3647C22.9669 3.54702 22.1968 4.54745 21.1733 5.18408C22.1481 5.06282 23.1034 4.78997 24.0002 4.38576C23.3374 5.4165 22.499 6.30577 21.534 7.03335Z" fill="black"/>
</svg>
